<svg width="670" height="200" viewBox="0 0 670 200" fill="none" xmlns="http://www.w3.org/2000/svg">
<path d="M164.206 38.3128C164.206 52.5689 152.301 64.1256 137.616 64.1256C122.931 64.1256 111.027 52.5689 111.027 38.3128C111.027 24.0568 122.931 12.5 137.616 12.5C152.301 12.5 164.206 24.0568 164.206 38.3128Z" fill="black"/>
<path d="M53.1799 94.9951C53.1799 109.251 41.2751 120.808 26.5899 120.808C11.9047 120.808 0 109.251 0 94.9951C0 80.7391 11.9047 69.1824 26.5899 69.1824C41.2751 69.1824 53.1799 80.7391 53.1799 94.9951Z" fill="black"/>
<path d="M86.7156 161.582C67.5057 157.579 51.4432 145.672 42.4352 128.815C35.3807 131.976 27.3495 132.925 19.6439 131.555C30.6054 157.579 53.7224 176.437 82.0487 182.337C88.235 183.601 94.6382 184.234 100.933 184.234C96.0492 178.017 93.3359 170.432 93.1189 162.635L92.2754 162.506C90.4689 162.232 88.5922 161.946 86.7156 161.582Z" fill="black"/>
<path d="M158.129 161.688C158.129 175.944 146.224 187.5 131.539 187.5C116.853 187.5 104.949 175.944 104.949 161.688C104.949 147.431 116.853 135.875 131.539 135.875C146.224 135.875 158.129 147.431 158.129 161.688Z" fill="black"/>
<path d="M168.655 152.204C176.904 142.09 182.765 130.079 185.586 117.331C190.47 95.1 185.911 71.8158 172.996 52.9567C169.957 60.0157 164.749 65.9158 158.02 70.0248C165.182 83.1945 167.354 98.3662 164.206 113.011C162.577 120.175 159.865 126.919 155.957 133.029C162.144 137.875 166.594 144.619 168.655 152.204Z" fill="black"/>
<path d="M25.4781 57.86C25.153 57.8854 24.84 57.9098 24.5269 57.9098C41.1321 29.4629 73.6911 12.711 107.119 15.2395C103.537 19.6647 101.041 24.8272 99.847 30.4112C99.5214 32.3075 99.1958 34.2042 99.0873 36.2059C78.1409 36.6273 58.8225 46.6364 46.7756 63.3884C43.0856 61.1758 38.9615 59.5954 34.6203 58.6473C32.0155 58.1204 29.3023 57.8044 26.589 57.8044C26.1945 57.8044 25.8293 57.8328 25.4781 57.86Z" fill="black"/>
<path d="M257.538 149H240.962V47.9258H257.538V113.085L263.67 105.605L286.378 81.6172H307.199L279.033 111.4L310.771 149H289.41L267.578 122.114L257.538 132.02V149ZM381.59 141.184C373.189 147.293 364.003 150.348 354.03 150.348C346.798 150.348 340.307 148.775 334.557 145.631C328.807 142.486 324.247 138.196 320.878 132.761C317.554 127.325 315.892 121.171 315.892 114.298C315.892 107.784 317.396 101.967 320.406 96.8457C323.461 91.7246 327.616 87.6816 332.872 84.7168C338.173 81.752 344.147 80.2695 350.796 80.2695C357.714 80.2695 363.778 81.9092 368.989 85.1885C374.245 88.4229 378.333 92.9375 381.253 98.7324C384.173 104.482 385.633 111.176 385.633 118.812V120.969H333.748C334.557 124.023 335.972 126.719 337.993 129.055C340.06 131.391 342.62 133.21 345.675 134.513C348.729 135.815 352.166 136.467 355.984 136.467C363.172 136.467 369.82 134.131 375.93 129.459L381.59 141.184ZM333.074 111.266H370.27C369.91 107.896 368.877 104.954 367.17 102.438C365.508 99.9229 363.329 97.9688 360.634 96.5762C357.983 95.1387 354.996 94.4199 351.672 94.4199C348.303 94.4199 345.293 95.1387 342.643 96.5762C339.992 98.0137 337.836 100.013 336.174 102.573C334.512 105.089 333.479 107.986 333.074 111.266ZM460.158 141.184C451.758 147.293 442.571 150.348 432.599 150.348C425.366 150.348 418.875 148.775 413.125 145.631C407.375 142.486 402.815 138.196 399.446 132.761C396.122 127.325 394.46 121.171 394.46 114.298C394.46 107.784 395.965 101.967 398.975 96.8457C402.029 91.7246 406.185 87.6816 411.44 84.7168C416.741 81.752 422.716 80.2695 429.364 80.2695C436.282 80.2695 442.347 81.9092 447.558 85.1885C452.813 88.4229 456.901 92.9375 459.821 98.7324C462.741 104.482 464.201 111.176 464.201 118.812V120.969H412.316C413.125 124.023 414.54 126.719 416.562 129.055C418.628 131.391 421.188 133.21 424.243 134.513C427.298 135.815 430.734 136.467 434.553 136.467C441.74 136.467 448.389 134.131 454.498 129.459L460.158 141.184ZM411.643 111.266H448.838C448.479 107.896 447.445 104.954 445.738 102.438C444.076 99.9229 441.897 97.9688 439.202 96.5762C436.552 95.1387 433.564 94.4199 430.24 94.4199C426.871 94.4199 423.861 95.1387 421.211 96.5762C418.561 98.0137 416.404 100.013 414.742 102.573C413.08 105.089 412.047 107.986 411.643 111.266ZM495.332 149H477.61V47.9258H495.332V149ZM544.589 150.348C537.761 150.348 531.629 148.82 526.193 145.766C520.803 142.711 516.535 138.556 513.391 133.3C510.291 127.999 508.741 122.002 508.741 115.309C508.741 108.615 510.291 102.641 513.391 97.3848C516.535 92.084 520.803 87.9062 526.193 84.8516C531.629 81.7969 537.761 80.2695 544.589 80.2695C551.462 80.2695 557.594 81.7969 562.984 84.8516C568.375 87.9062 572.598 92.084 575.652 97.3848C578.752 102.641 580.302 108.615 580.302 115.309C580.302 122.002 578.752 127.999 575.652 133.3C572.598 138.556 568.375 142.711 562.984 145.766C557.594 148.82 551.462 150.348 544.589 150.348ZM544.521 135.456C548.115 135.456 551.327 134.58 554.157 132.828C556.987 131.076 559.211 128.673 560.828 125.618C562.49 122.563 563.321 119.104 563.321 115.241C563.321 111.423 562.49 108.009 560.828 104.999C559.211 101.944 556.987 99.541 554.157 97.7891C551.327 96.0371 548.115 95.1611 544.521 95.1611C540.973 95.1611 537.761 96.0371 534.886 97.7891C532.056 99.541 529.81 101.944 528.147 104.999C526.53 108.009 525.722 111.423 525.722 115.241C525.722 119.104 526.53 122.563 528.147 125.618C529.81 128.673 532.056 131.076 534.886 132.828C537.761 134.58 540.973 135.456 544.521 135.456ZM621.607 149.539C615.363 149.539 609.793 148.034 604.896 145.024C600 142.015 596.137 137.904 593.307 132.693C590.477 127.438 589.062 121.508 589.062 114.904C589.062 108.256 590.477 102.326 593.307 97.1152C596.137 91.9043 600 87.7939 604.896 84.7842C609.793 81.7744 615.363 80.2695 621.607 80.2695C626.504 80.2695 631.019 81.2129 635.151 83.0996C639.284 84.9863 642.788 87.6143 645.663 90.9834L646.472 81.6172H661.026V147.181C661.026 154.638 659.432 161.129 656.242 166.654C653.098 172.18 648.65 176.447 642.9 179.457C637.15 182.512 630.345 184.039 622.483 184.039C611.567 184.039 601.797 180.558 593.172 173.595L599.978 160.051C605.997 166.115 613.14 169.147 621.405 169.147C626.077 169.147 630.12 168.204 633.534 166.317C636.993 164.476 639.666 161.848 641.553 158.434C643.484 155.064 644.45 151.111 644.45 146.574V140.105C641.575 143.07 638.184 145.384 634.275 147.046C630.367 148.708 626.145 149.539 621.607 149.539ZM625.246 134.782C628.795 134.782 632.007 133.996 634.882 132.424C637.802 130.807 640.115 128.605 641.822 125.82C643.574 123.035 644.45 119.868 644.45 116.319V113.354C644.45 109.806 643.574 106.661 641.822 103.921C640.115 101.181 637.802 99.0244 634.882 97.4521C631.962 95.835 628.75 95.0264 625.246 95.0264C621.562 95.0264 618.261 95.9023 615.341 97.6543C612.421 99.3613 610.107 101.72 608.4 104.729C606.738 107.739 605.907 111.131 605.907 114.904C605.907 118.678 606.738 122.069 608.4 125.079C610.107 128.089 612.421 130.47 615.341 132.222C618.261 133.929 621.562 134.782 625.246 134.782Z" fill="black"/>
</svg>
